<?xml version="1.0" encoding="utf-8"?>
<!-- Generator: Adobe Illustrator 16.0.0, SVG Export Plug-In . SVG Version: 6.00 Build 0)  -->
<!DOCTYPE svg PUBLIC "-//W3C//DTD SVG 1.1//EN" "http://www.w3.org/Graphics/SVG/1.1/DTD/svg11.dtd">
<svg version="1.1" id="Layer_1" xmlns="http://www.w3.org/2000/svg" xmlns:xlink="http://www.w3.org/1999/xlink" x="0px" y="0px"
	 width="1462px" height="736px" viewBox="56.079 157.617 1462 736" enable-background="new 56.079 157.617 1462 736"
	 xml:space="preserve">
<image overflow="visible" width="1374" height="678" xlink:href="helppage_screenshot.png"  transform="matrix(0.9999 0 0 0.9999 106 199.6641)">
</image>
<path fill="none" stroke="#F90303" stroke-width="4" stroke-miterlimit="10" d="M222.884,245.971
	c-20.11,0-38.102,2.704-58.188,2.704c-11.57,0-22.118-0.268-33.274-1.846c-9.6-1.358-20.35-2.441-26.395,6.969
	c-5.474,8.522-4.584,27.034,3.707,34.557c8.899,8.075,33.138,9.298,44.489,9.888c13.939,0.724,27.653-3.819,41.56-4.503
	c10.781-0.53,23.427,1.982,33.757-0.904c23.317-6.514,21.407-30.598,7.542-45.062L222.884,245.971z"/>
<text transform="matrix(1 0 0 1 66.2598 285.2344)" fill="#F90303" font-family="'MyriadPro-Regular'" font-size="48">A</text>
<path fill="none" stroke="#F90303" stroke-width="4" stroke-miterlimit="10" d="M1334.886,211.822
	c-15.769,0.594-31.366,1.767-44.86,1.781c-48.535,0.049-96.747-5.729-145.438-5.706c-62.776,0.029-125.478,2.577-188.285,2.152
	c-68.493-0.464-138.078-0.07-207.022,1.211c-3.651,0.067-16.724,2.188-23.201,2.687c-7.691,0.592-60.686-1.258-44.001,18.827
	c10.724,12.909,43.972,11.52,58.956,13.141c9.247,1,18.414,1.55,27.7,1.872c72.745,2.522,145.39-1.438,218.038-3.264
	c70.848-1.78,141.284,1.761,212.094,1.761c60.552,0,121.09,0.585,181.445-2.907c17.474-1.011,26.995,0.854,29.555-10.119
	c1.395-5.978-1.598-11.028-9.618-14.399C1382.368,211.347,1358.438,210.936,1334.886,211.822z"/>
<text transform="matrix(1 0 0 1 1014.2598 197.5674)" fill="#F90303" font-family="'MyriadPro-Regular'" font-size="48">B</text>
<path fill="none" stroke="#F90303" stroke-width="4" stroke-miterlimit="10" d="M1033.319,269.854
	c-16.737-7.479-45.636-5.236-50.814-5.308c-16.702-0.231-33.334,1.481-50.025-0.716c-41.12-5.411-83.685-1.181-124.987-1.371
	c-40.591-0.186-79.162-0.242-119.708,0.499c-39.8,0.727-79.589-0.713-119.357,2.886c-8.917,0.808-18.601-3.412-24.797,10.951
	c-17.154,39.76,36.832,30.312,51.314,30.185c46.947-0.412,81.05,4.027,127.934,1.006c50.126-3.228,114.063,1.759,164.062-1.006
	c61.905-3.425,100.812,19.642,155.641-10.603C1049.014,282.314,1043.352,274.338,1033.319,269.854z"/>
<text transform="matrix(1 0 0 1 904.8887 349.2344)" fill="#F90303" font-family="'MyriadPro-Regular'" font-size="48">C</text>
<path fill="none" stroke="#F90303" stroke-width="4" stroke-miterlimit="10" d="M1453.422,356.301
	c-4.953-3.042-11.587-2.401-22.656-2.619c-21.363-0.418-42.692-1.682-64.078-1.683c-15.991,0-34.004-0.901-48.387,5.34
	c-15.438,6.699-23.764,23.687-8.96,33.896c18.87,13.014,55.079,3.659,77.406,4.424c17.374,0.595,36.052,0.991,53.335,0.149
	c23.129-1.127,27.755-15.014,20.312-30.693C1458.27,360.64,1456.088,357.937,1453.422,356.301z"/>
<text transform="matrix(1 0 0 1 1479.2598 390.2344)" fill="#F90303" font-family="'MyriadPro-Regular'" font-size="48">D</text>
<path fill="none" stroke="#F90303" stroke-width="4" stroke-miterlimit="10" d="M1399.411,424.168
	c-8.285-7.822-21.686-10.21-31.956-11.118c-13.092-1.158-12.464-2.052-25.675-1.693c-20.243,0.549-38.964,7.718-40.115,34.989
	c-1.086,25.686,2.464,46.094-0.244,72.643c-1.923,18.855-2.735,44.261,6.59,60.961c16.361,29.3,51.333,13.688,74.16,1.469
	c15.224-8.149,17.099-27.153,17.825-43.298c1.027-22.862,1.997-46.197,4.46-68.923c1.327-12.229,5.789-26.906-0.146-38.533
	C1403.035,428.161,1401.364,426.013,1399.411,424.168z"/>
<text transform="matrix(1 0 0 1 1412.2598 526.2344)" fill="#F90303" font-family="'MyriadPro-Regular'" font-size="48">E</text>
<path fill="none" stroke="#F90303" stroke-width="4" stroke-miterlimit="10" d="M296.417,314.148
	c-12.538-10.408-35.672-6.704-50.098-6.869c-21.048-0.242-42.112-0.003-63.161-0.003c-18.83,0-38.061,0.407-56.836,1.896
	c-13.818,1.095-17.434,5.784-18.399,20.207c-1.541,23.014,1.041,46.272-0.346,69.429c-1.453,24.259-3.979,48.437-5.137,72.716
	c-2.339,49.026,0.741,99.382,0.741,148.484c0,35.732-1.944,71.573-0.234,107.217c1.673,34.888,2.231,69.515,2.142,104.508
	c-0.036,14.128-2.229,32.707,9.776,42.591c12.455,10.254,31.777,1.948,46.197,1.947c9.248-0.001,18.271,0.545,27.447,1.013
	c15.182,0.771,30.597-0.023,45.781-0.023c17.319,0,40.844,7.538,52.99-9.898c10.681-15.334,10.382-40.673,10.525-58.664
	c0.117-14.63-1.597-29.271-1.138-43.894c1.17-37.265-0.295-74.604,0.127-112.15c0.845-74.938,4.083-148.604,3.815-223.617
	c-0.084-23.51-0.353-45.514,2.656-68.767c1.714-13.245,5.199-32.592-4.236-43.553C298.224,315.775,297.35,314.923,296.417,314.148z"
	/>
<text transform="matrix(1 0 0 1 73.9263 429.2344)" fill="#F90303" font-family="'MyriadPro-Regular'" font-size="48">F</text>
<path fill="none" stroke="#F90303" stroke-width="4" stroke-miterlimit="10" d="M1463.668,261.065
	c-4.995-3.75-7.865-6.177-14.734-6.657c-13.252-0.927-26.637-1.225-39.842-2.692c-8.498-0.944-16.472-1.48-25.286-1.481
	c-17.392-0.002-34.579-2.03-52.021-1.333c-16.593,0.662-24.598,6.897-28.216,23.852c-3.16,14.806-1.998,32.848-0.147,47.87
	c0.789,6.405,1.623,18.238,7.483,22.111c7.824,5.172,24.092,2.167,32.865,2.167c17.157,0,34.285-1.023,51.365-2.622
	c8.146-0.763,16.243,0.765,24.385,0.611c8.431-0.159,16.445-2.855,24.918-2.95c17.077-0.192,21.89-17.244,23.854-31.178
	C1469.966,296.892,1474.878,269.482,1463.668,261.065z"/>
<text transform="matrix(1 0 0 1 1480.2598 312.1934)" fill="#F90303" font-family="'MyriadPro-Regular'" font-size="48">G</text>
<path fill="none" stroke="#F90303" stroke-width="4" stroke-miterlimit="10" d="M671.538,210.279
	c-16.795,5.029-47.716-1.621-65.497-1.231c-15.15,0.333-30.302,0.665-45.452,0.997c-91.623,2.01-183.205,9.354-274.871,5.792
	c-25.962-1.01-51.957-1.986-77.925-2.084c-30.425-0.114-63.65-4.368-94.384,3.985c-8.918,2.424-13.009,16.433-1.027,23.97
	c11.113,6.991,31.726,2.371,44.166,2.098c28.995-0.636,58.021-1.647,87.024-1.324c28.257,0.315,56.483,3.695,84.767,2.207
	c23.76-1.251,47.48-3.729,71.304-3.593c23.496,0.135,46.881,2.62,70.39,2.637c41.635,0.031,83.271-0.628,124.896-1.542
	c22.49-0.493,54.548,8.358,74.15-1.574C677.176,236.513,678.388,217.443,671.538,210.279"/>
</svg>
